<svg width="48" height="48" viewBox="0 0 48 48" fill="none" xmlns="http://www.w3.org/2000/svg">
<path d="M5 41.9999C4.2 41.9999 3.5 41.6999 2.9 41.0999C2.3 40.4999 2 39.7999 2 38.9999V13.3499C2 12.5832 2.3 11.8916 2.9 11.2749C3.5 10.6582 4.2 10.3499 5 10.3499H12.35L16 5.9999H29.7V8.9999H17.4L13.75 13.3499H5V38.9999H39V18.2999H42V38.9999C42 39.7999 41.6917 40.4999 41.075 41.0999C40.4583 41.6999 39.7667 41.9999 39 41.9999H5ZM39 13.2999V8.9999H34.7V5.9999H39V1.6499H42V5.9999H46.35V8.9999H42V13.2999H39ZM21.975 34.6499C24.3917 34.6499 26.4167 33.8332 28.05 32.1999C29.6833 30.5666 30.5 28.5416 30.5 26.1249C30.5 23.7082 29.6833 21.6916 28.05 20.0749C26.4167 18.4582 24.3917 17.6499 21.975 17.6499C19.5583 17.6499 17.5417 18.4582 15.925 20.0749C14.3083 21.6916 13.5 23.7082 13.5 26.1249C13.5 28.5416 14.3083 30.5666 15.925 32.1999C17.5417 33.8332 19.5583 34.6499 21.975 34.6499ZM21.975 31.6499C20.3917 31.6499 19.0833 31.1249 18.05 30.0749C17.0167 29.0249 16.5 27.7082 16.5 26.1249C16.5 24.5416 17.0167 23.2332 18.05 22.1999C19.0833 21.1666 20.3917 20.6499 21.975 20.6499C23.5583 20.6499 24.875 21.1666 25.925 22.1999C26.975 23.2332 27.5 24.5416 27.5 26.1249C27.5 27.7082 26.975 29.0249 25.925 30.0749C24.875 31.1249 23.5583 31.6499 21.975 31.6499Z" fill="black"/>
</svg>
