<svg width="267" height="223" viewBox="0 0 267 223" fill="none" xmlns="http://www.w3.org/2000/svg">
<path d="M69.6647 187.222C53.2609 187.222 39.1479 182.298 27.3258 172.449C15.5055 162.6 9.59531 150.838 9.59531 137.164C9.59531 124.861 14.2066 113.965 23.4292 104.473C32.6519 94.9817 44.6048 89.2697 59.2879 87.337C63.1742 72.204 72.0705 59.8569 85.9768 50.2958C99.883 40.7347 115.916 35.9541 134.076 35.9541C155.193 35.9541 172.954 42.2833 187.359 54.9416C201.766 67.6 209.146 82.812 209.5 100.578V106.153C222.984 106.176 234.339 110.039 243.565 117.742C252.792 125.446 257.405 135.095 257.405 146.688C257.405 157.777 252.603 167.305 243.001 175.271C233.396 183.239 221.975 187.222 208.738 187.222H143.771C138.657 187.222 134.21 185.644 130.429 182.486C126.649 179.328 124.759 175.632 124.759 171.396V114.02L101.34 133.633L88.8498 123.256L133.5 85.9084L178.217 123.256L165.66 133.633L142.241 114.02V171.396H208.763C216.87 171.396 223.845 168.958 229.69 164.082C235.534 159.205 238.456 153.37 238.456 146.576C238.456 139.756 235.537 133.914 229.698 129.05C223.859 124.187 216.873 121.756 208.738 121.756H190.619V101.632C190.619 88.0184 185.084 76.3155 174.014 66.5237C162.945 56.7318 149.265 51.8359 132.974 51.8359C116.585 51.8359 102.824 56.8007 91.6895 66.7304C80.557 76.6601 74.9908 88.4977 74.9908 102.243H69.1085C57.7777 102.243 48.1842 105.562 40.3281 112.199C32.472 118.835 28.544 127.038 28.544 136.808C28.544 146.269 32.561 154.399 40.5951 161.199C48.6311 167.997 58.3321 171.396 69.6981 171.396H108.071V187.222H69.6647Z" fill="black"/>
</svg>
